<mxfile host="app.diagrams.net" modified="2024-03-27T14:24:47.568Z" agent="Mozilla/5.0 (Windows NT 10.0; Win64; x64) AppleWebKit/537.36 (KHTML, like Gecko) Chrome/122.0.0.0 Safari/537.36" etag="WZtwkz-QowtotSP0KSQL" version="24.2.0" type="device">
  <diagram id="C5RBs43oDa-KdzZeNtuy" name="Page-1">
    <mxGraphModel dx="1051" dy="646" grid="1" gridSize="10" guides="1" tooltips="1" connect="1" arrows="1" fold="1" page="1" pageScale="1" pageWidth="827" pageHeight="1169" math="0" shadow="0">
      <root>
        <mxCell id="WIyWlLk6GJQsqaUBKTNV-0" />
        <mxCell id="WIyWlLk6GJQsqaUBKTNV-1" parent="WIyWlLk6GJQsqaUBKTNV-0" />
        <mxCell id="2h1xDWdD1MH1R5NGjyaF-0" value="Planet" style="swimlane;whiteSpace=wrap;html=1;" vertex="1" parent="WIyWlLk6GJQsqaUBKTNV-1">
          <mxGeometry x="350" y="400" width="200" height="264" as="geometry">
            <mxRectangle x="530" y="446" width="140" height="30" as="alternateBounds" />
          </mxGeometry>
        </mxCell>
        <mxCell id="2h1xDWdD1MH1R5NGjyaF-3" value="Enabled" style="text;align=left;verticalAlign=top;spacingLeft=4;spacingRight=4;overflow=hidden;rotatable=0;points=[[0,0.5],[1,0.5]];portConstraint=eastwest;" vertex="1" parent="2h1xDWdD1MH1R5NGjyaF-0">
          <mxGeometry y="76" width="200" height="26" as="geometry" />
        </mxCell>
        <mxCell id="2h1xDWdD1MH1R5NGjyaF-4" value="ID" style="text;align=left;verticalAlign=top;spacingLeft=4;spacingRight=4;overflow=hidden;rotatable=0;points=[[0,0.5],[1,0.5]];portConstraint=eastwest;" vertex="1" parent="2h1xDWdD1MH1R5NGjyaF-0">
          <mxGeometry y="24" width="200" height="26" as="geometry" />
        </mxCell>
        <mxCell id="2h1xDWdD1MH1R5NGjyaF-5" value="Initial Owner" style="text;align=left;verticalAlign=top;spacingLeft=4;spacingRight=4;overflow=hidden;rotatable=0;points=[[0,0.5],[1,0.5]];portConstraint=eastwest;" vertex="1" parent="2h1xDWdD1MH1R5NGjyaF-0">
          <mxGeometry y="102" width="200" height="26" as="geometry" />
        </mxCell>
        <mxCell id="2h1xDWdD1MH1R5NGjyaF-10" value="Max Health" style="text;align=left;verticalAlign=top;spacingLeft=4;spacingRight=4;overflow=hidden;rotatable=0;points=[[0,0.5],[1,0.5]];portConstraint=eastwest;" vertex="1" parent="2h1xDWdD1MH1R5NGjyaF-0">
          <mxGeometry y="128" width="200" height="26" as="geometry" />
        </mxCell>
        <mxCell id="2h1xDWdD1MH1R5NGjyaF-11" value="Name" style="text;align=left;verticalAlign=top;spacingLeft=4;spacingRight=4;overflow=hidden;rotatable=0;points=[[0,0.5],[1,0.5]];portConstraint=eastwest;" vertex="1" parent="2h1xDWdD1MH1R5NGjyaF-0">
          <mxGeometry y="50" width="200" height="26" as="geometry" />
        </mxCell>
        <mxCell id="2h1xDWdD1MH1R5NGjyaF-12" value="Position X" style="text;align=left;verticalAlign=top;spacingLeft=4;spacingRight=4;overflow=hidden;rotatable=0;points=[[0,0.5],[1,0.5]];portConstraint=eastwest;" vertex="1" parent="2h1xDWdD1MH1R5NGjyaF-0">
          <mxGeometry y="154" width="200" height="26" as="geometry" />
        </mxCell>
        <mxCell id="2h1xDWdD1MH1R5NGjyaF-13" value="Position Y" style="text;align=left;verticalAlign=top;spacingLeft=4;spacingRight=4;overflow=hidden;rotatable=0;points=[[0,0.5],[1,0.5]];portConstraint=eastwest;" vertex="1" parent="2h1xDWdD1MH1R5NGjyaF-0">
          <mxGeometry y="180" width="200" height="26" as="geometry" />
        </mxCell>
        <mxCell id="2h1xDWdD1MH1R5NGjyaF-14" value="Sector" style="text;align=left;verticalAlign=top;spacingLeft=4;spacingRight=4;overflow=hidden;rotatable=0;points=[[0,0.5],[1,0.5]];portConstraint=eastwest;" vertex="1" parent="2h1xDWdD1MH1R5NGjyaF-0">
          <mxGeometry y="204" width="200" height="26" as="geometry" />
        </mxCell>
        <mxCell id="2h1xDWdD1MH1R5NGjyaF-15" value="Waypoint List: List[int]" style="text;align=left;verticalAlign=top;spacingLeft=4;spacingRight=4;overflow=hidden;rotatable=0;points=[[0,0.5],[1,0.5]];portConstraint=eastwest;" vertex="1" parent="2h1xDWdD1MH1R5NGjyaF-0">
          <mxGeometry y="230" width="200" height="26" as="geometry" />
        </mxCell>
        <mxCell id="2h1xDWdD1MH1R5NGjyaF-29" style="edgeStyle=orthogonalEdgeStyle;rounded=0;orthogonalLoop=1;jettySize=auto;html=1;entryX=0.5;entryY=0;entryDx=0;entryDy=0;" edge="1" parent="WIyWlLk6GJQsqaUBKTNV-1" source="2h1xDWdD1MH1R5NGjyaF-16" target="2h1xDWdD1MH1R5NGjyaF-0">
          <mxGeometry relative="1" as="geometry" />
        </mxCell>
        <mxCell id="2h1xDWdD1MH1R5NGjyaF-30" value="is targeting" style="edgeLabel;html=1;align=center;verticalAlign=middle;resizable=0;points=[];" vertex="1" connectable="0" parent="2h1xDWdD1MH1R5NGjyaF-29">
          <mxGeometry x="0.4531" y="1" relative="1" as="geometry">
            <mxPoint x="-91" y="1" as="offset" />
          </mxGeometry>
        </mxCell>
        <mxCell id="2h1xDWdD1MH1R5NGjyaF-16" value="Campaign" style="swimlane;whiteSpace=wrap;html=1;" vertex="1" parent="WIyWlLk6GJQsqaUBKTNV-1">
          <mxGeometry x="60" y="240" width="200" height="130" as="geometry">
            <mxRectangle x="530" y="446" width="140" height="30" as="alternateBounds" />
          </mxGeometry>
        </mxCell>
        <mxCell id="2h1xDWdD1MH1R5NGjyaF-18" value="ID: int" style="text;align=left;verticalAlign=top;spacingLeft=4;spacingRight=4;overflow=hidden;rotatable=0;points=[[0,0.5],[1,0.5]];portConstraint=eastwest;" vertex="1" parent="2h1xDWdD1MH1R5NGjyaF-16">
          <mxGeometry y="24" width="200" height="26" as="geometry" />
        </mxCell>
        <mxCell id="2h1xDWdD1MH1R5NGjyaF-26" value="Planet: #ref" style="text;align=left;verticalAlign=top;spacingLeft=4;spacingRight=4;overflow=hidden;rotatable=0;points=[[0,0.5],[1,0.5]];portConstraint=eastwest;" vertex="1" parent="2h1xDWdD1MH1R5NGjyaF-16">
          <mxGeometry y="50" width="200" height="26" as="geometry" />
        </mxCell>
        <mxCell id="2h1xDWdD1MH1R5NGjyaF-27" value="Count: int" style="text;align=left;verticalAlign=top;spacingLeft=4;spacingRight=4;overflow=hidden;rotatable=0;points=[[0,0.5],[1,0.5]];portConstraint=eastwest;" vertex="1" parent="2h1xDWdD1MH1R5NGjyaF-16">
          <mxGeometry y="76" width="200" height="26" as="geometry" />
        </mxCell>
        <mxCell id="2h1xDWdD1MH1R5NGjyaF-28" value="Type: int" style="text;align=left;verticalAlign=top;spacingLeft=4;spacingRight=4;overflow=hidden;rotatable=0;points=[[0,0.5],[1,0.5]];portConstraint=eastwest;" vertex="1" parent="2h1xDWdD1MH1R5NGjyaF-16">
          <mxGeometry y="102" width="200" height="26" as="geometry" />
        </mxCell>
        <mxCell id="2h1xDWdD1MH1R5NGjyaF-59" style="edgeStyle=orthogonalEdgeStyle;rounded=0;orthogonalLoop=1;jettySize=auto;html=1;entryX=0;entryY=0.5;entryDx=0;entryDy=0;" edge="1" parent="WIyWlLk6GJQsqaUBKTNV-1" source="2h1xDWdD1MH1R5NGjyaF-31" target="2h1xDWdD1MH1R5NGjyaF-53">
          <mxGeometry relative="1" as="geometry" />
        </mxCell>
        <mxCell id="2h1xDWdD1MH1R5NGjyaF-60" value="announces" style="edgeLabel;html=1;align=center;verticalAlign=middle;resizable=0;points=[];" vertex="1" connectable="0" parent="2h1xDWdD1MH1R5NGjyaF-59">
          <mxGeometry x="0.4204" y="-2" relative="1" as="geometry">
            <mxPoint as="offset" />
          </mxGeometry>
        </mxCell>
        <mxCell id="2h1xDWdD1MH1R5NGjyaF-31" value="GlobalEvent" style="swimlane;whiteSpace=wrap;html=1;" vertex="1" parent="WIyWlLk6GJQsqaUBKTNV-1">
          <mxGeometry x="60" y="460" width="200" height="170" as="geometry">
            <mxRectangle x="530" y="446" width="140" height="30" as="alternateBounds" />
          </mxGeometry>
        </mxCell>
        <mxCell id="2h1xDWdD1MH1R5NGjyaF-32" value="ID: int" style="text;align=left;verticalAlign=top;spacingLeft=4;spacingRight=4;overflow=hidden;rotatable=0;points=[[0,0.5],[1,0.5]];portConstraint=eastwest;" vertex="1" parent="2h1xDWdD1MH1R5NGjyaF-31">
          <mxGeometry y="24" width="200" height="26" as="geometry" />
        </mxCell>
        <mxCell id="2h1xDWdD1MH1R5NGjyaF-36" value="Effects List: List[string]" style="text;align=left;verticalAlign=top;spacingLeft=4;spacingRight=4;overflow=hidden;rotatable=0;points=[[0,0.5],[1,0.5]];portConstraint=eastwest;" vertex="1" parent="2h1xDWdD1MH1R5NGjyaF-31">
          <mxGeometry y="47" width="200" height="26" as="geometry" />
        </mxCell>
        <mxCell id="2h1xDWdD1MH1R5NGjyaF-37" value="Flag: int" style="text;align=left;verticalAlign=top;spacingLeft=4;spacingRight=4;overflow=hidden;rotatable=0;points=[[0,0.5],[1,0.5]];portConstraint=eastwest;" vertex="1" parent="2h1xDWdD1MH1R5NGjyaF-31">
          <mxGeometry y="73" width="200" height="26" as="geometry" />
        </mxCell>
        <mxCell id="2h1xDWdD1MH1R5NGjyaF-58" value="Message: #ref" style="text;align=left;verticalAlign=top;spacingLeft=4;spacingRight=4;overflow=hidden;rotatable=0;points=[[0,0.5],[1,0.5]];portConstraint=eastwest;" vertex="1" parent="2h1xDWdD1MH1R5NGjyaF-31">
          <mxGeometry y="99" width="200" height="26" as="geometry" />
        </mxCell>
        <mxCell id="2h1xDWdD1MH1R5NGjyaF-46" value="GlobalEventMessage" style="swimlane;whiteSpace=wrap;html=1;" vertex="1" parent="WIyWlLk6GJQsqaUBKTNV-1">
          <mxGeometry x="290" y="780" width="200" height="260" as="geometry">
            <mxRectangle x="530" y="446" width="140" height="30" as="alternateBounds" />
          </mxGeometry>
        </mxCell>
        <mxCell id="2h1xDWdD1MH1R5NGjyaF-47" value="ID: int" style="text;align=left;verticalAlign=top;spacingLeft=4;spacingRight=4;overflow=hidden;rotatable=0;points=[[0,0.5],[1,0.5]];portConstraint=eastwest;" vertex="1" parent="2h1xDWdD1MH1R5NGjyaF-46">
          <mxGeometry y="24" width="200" height="26" as="geometry" />
        </mxCell>
        <mxCell id="2h1xDWdD1MH1R5NGjyaF-50" value="de: string" style="text;align=left;verticalAlign=top;spacingLeft=4;spacingRight=4;overflow=hidden;rotatable=0;points=[[0,0.5],[1,0.5]];portConstraint=eastwest;" vertex="1" parent="2h1xDWdD1MH1R5NGjyaF-46">
          <mxGeometry y="50" width="200" height="26" as="geometry" />
        </mxCell>
        <mxCell id="2h1xDWdD1MH1R5NGjyaF-51" value="en: string" style="text;align=left;verticalAlign=top;spacingLeft=4;spacingRight=4;overflow=hidden;rotatable=0;points=[[0,0.5],[1,0.5]];portConstraint=eastwest;" vertex="1" parent="2h1xDWdD1MH1R5NGjyaF-46">
          <mxGeometry y="76" width="200" height="26" as="geometry" />
        </mxCell>
        <mxCell id="2h1xDWdD1MH1R5NGjyaF-52" value="es: string" style="text;align=left;verticalAlign=top;spacingLeft=4;spacingRight=4;overflow=hidden;rotatable=0;points=[[0,0.5],[1,0.5]];portConstraint=eastwest;" vertex="1" parent="2h1xDWdD1MH1R5NGjyaF-46">
          <mxGeometry y="102" width="200" height="26" as="geometry" />
        </mxCell>
        <mxCell id="2h1xDWdD1MH1R5NGjyaF-53" value="fr: string" style="text;align=left;verticalAlign=top;spacingLeft=4;spacingRight=4;overflow=hidden;rotatable=0;points=[[0,0.5],[1,0.5]];portConstraint=eastwest;" vertex="1" parent="2h1xDWdD1MH1R5NGjyaF-46">
          <mxGeometry y="128" width="200" height="26" as="geometry" />
        </mxCell>
        <mxCell id="2h1xDWdD1MH1R5NGjyaF-54" value="it: string" style="text;align=left;verticalAlign=top;spacingLeft=4;spacingRight=4;overflow=hidden;rotatable=0;points=[[0,0.5],[1,0.5]];portConstraint=eastwest;" vertex="1" parent="2h1xDWdD1MH1R5NGjyaF-46">
          <mxGeometry y="154" width="200" height="26" as="geometry" />
        </mxCell>
        <mxCell id="2h1xDWdD1MH1R5NGjyaF-55" value="pl: string" style="text;align=left;verticalAlign=top;spacingLeft=4;spacingRight=4;overflow=hidden;rotatable=0;points=[[0,0.5],[1,0.5]];portConstraint=eastwest;" vertex="1" parent="2h1xDWdD1MH1R5NGjyaF-46">
          <mxGeometry y="180" width="200" height="26" as="geometry" />
        </mxCell>
        <mxCell id="2h1xDWdD1MH1R5NGjyaF-56" value="ru: string" style="text;align=left;verticalAlign=top;spacingLeft=4;spacingRight=4;overflow=hidden;rotatable=0;points=[[0,0.5],[1,0.5]];portConstraint=eastwest;" vertex="1" parent="2h1xDWdD1MH1R5NGjyaF-46">
          <mxGeometry y="206" width="200" height="26" as="geometry" />
        </mxCell>
        <mxCell id="2h1xDWdD1MH1R5NGjyaF-57" value="zh: string" style="text;align=left;verticalAlign=top;spacingLeft=4;spacingRight=4;overflow=hidden;rotatable=0;points=[[0,0.5],[1,0.5]];portConstraint=eastwest;" vertex="1" parent="2h1xDWdD1MH1R5NGjyaF-46">
          <mxGeometry y="232" width="200" height="26" as="geometry" />
        </mxCell>
      </root>
    </mxGraphModel>
  </diagram>
</mxfile>
